<svg width="14" height="12" viewBox="0 0 14 12" fill="none" xmlns="http://www.w3.org/2000/svg">
<path id="Union" fill-rule="evenodd" clip-rule="evenodd" d="M2.99999 0.5H12.6249C13.3833 0.5 13.9999 1.11669 13.9999 1.875V9.43749C13.9999 10.1958 13.3833 10.8125 12.6249 10.8125H7.12497V9.43749H12.6249V3.25L8.22497 6.54999C8.10592 6.63914 7.96119 6.68732 7.81247 6.68732C7.66374 6.68732 7.51902 6.63914 7.39997 6.54999L2.99999 3.25V5.31249H1.625V1.875C1.625 1.11669 2.24168 0.5 2.99999 0.5ZM3.45787 1.875L7.81247 5.14062L12.1671 1.875H3.45787ZM5.06248 6H0.25V7.375H5.06248V6ZM5.74997 8.0625H1.62499V9.4375H5.74997V8.0625ZM6.43747 10.125H3.68748V11.5H6.43747V10.125Z" fill="#FF7A00"/>
</svg>
