<svg width="20" height="20" viewBox="0 0 20 20" fill="none" xmlns="http://www.w3.org/2000/svg">
<path id="Union" fill-rule="evenodd" clip-rule="evenodd" d="M2.85714 0H0V2.85714H2.85714V0ZM2.85714 5.71431H0V8.57146H2.85714V5.71431ZM0 11.4285H2.85714V14.2857H0V11.4285ZM2.85714 17.1428H0V20H2.85714V17.1428ZM5.71431 0H8.57146V2.85714H5.71431V0ZM8.57146 5.71431H5.71431V8.57146H8.57146V5.71431ZM5.71431 11.4285H8.57146V14.2857H5.71431V11.4285ZM8.57146 17.1428H5.71431V20H8.57146V17.1428ZM11.4285 0H14.2857V2.85714H11.4285V0ZM14.2857 5.71431H11.4285V8.57146H14.2857V5.71431ZM11.4285 11.4285H14.2857V14.2857H11.4285V11.4285ZM14.2857 17.1428H11.4285V20H14.2857V17.1428ZM17 0H19.8571V2.85714H17V0ZM20 5.71431H17.1428V8.57146H20V5.71431ZM17.1428 11.4285H20V14.2857H17.1428V11.4285ZM20 17.1428H17.1428V20H20V17.1428Z" fill="#111111"/>
</svg>
