<svg width="14" height="20" viewBox="0 0 14 20" fill="none" xmlns="http://www.w3.org/2000/svg">
<g id="Group 32">
<rect id="Rectangle 28" x="0.167832" y="12.3221" width="13.6643" height="7.2028" fill="#5F5F5F" stroke="black" stroke-width="0.335664"/>
<g id="Group 28">
<g id="Vector">
<path d="M0.292969 16.3633H13.7056V19.4961H0.292969V16.3633Z" fill="white"/>
<path d="M2.75836 17.9386C2.75836 18.1058 2.62287 18.2413 2.45573 18.2413C2.2886 18.2413 2.15311 18.1058 2.15311 17.9386C2.15311 17.7715 2.2886 17.636 2.45573 17.636C2.62287 17.636 2.75836 17.7715 2.75836 17.9386Z" fill="black"/>
<path d="M11.8371 17.9386C11.8371 18.1058 11.7016 18.2413 11.5344 18.2413C11.3673 18.2413 11.2318 18.1058 11.2318 17.9386C11.2318 17.7715 11.3673 17.636 11.5344 17.636C11.7016 17.636 11.8371 17.7715 11.8371 17.9386Z" fill="black"/>
<path d="M5.09017 17.0486H9.00626V18.9087H5.09017V17.0486Z" fill="black"/>
</g>
</g>
<g id="Group 26">
<path id="Ellipse 11" d="M7.04888 15.7478C7.92648 15.7478 8.72779 15.634 9.31539 15.4456C9.60824 15.3517 9.85741 15.2364 10.0369 15.1003C10.2138 14.9663 10.3496 14.7906 10.3496 14.5756C10.3496 14.3606 10.2138 14.185 10.0369 14.0509C9.85741 13.9149 9.60824 13.7995 9.31539 13.7056C8.72779 13.5173 7.92648 13.4035 7.04888 13.4035C6.17128 13.4035 5.36998 13.5173 4.78238 13.7056C4.48953 13.7995 4.24036 13.9149 4.06083 14.0509C3.884 14.185 3.74818 14.3606 3.74818 14.5756C3.74818 14.7906 3.884 14.9663 4.06083 15.1003C4.24036 15.2364 4.48953 15.3517 4.78238 15.4456C5.36998 15.634 6.17128 15.7478 7.04888 15.7478Z" fill="white" stroke="black" stroke-width="0.335664"/>
<path id="Ellipse 12" d="M7.04888 14.6843C7.92648 14.6843 8.72779 14.5705 9.31539 14.3821C9.60824 14.2883 9.85741 14.1729 10.0369 14.0368C10.2138 13.9028 10.3496 13.7272 10.3496 13.5122C10.3496 13.2971 10.2138 13.1215 10.0369 12.9875C9.85741 12.8514 9.60824 12.736 9.31539 12.6422C8.72779 12.4538 7.92648 12.34 7.04888 12.34C6.17128 12.34 5.36998 12.4538 4.78238 12.6422C4.48953 12.736 4.24036 12.8514 4.06083 12.9875C3.884 13.1215 3.74818 13.2971 3.74818 13.5122C3.74818 13.7272 3.884 13.9028 4.06083 14.0368C4.24036 14.1729 4.48953 14.2883 4.78238 14.3821C5.36998 14.5705 6.17128 14.6843 7.04888 14.6843Z" fill="white" stroke="black" stroke-width="0.335664"/>
<path id="Ellipse 13" d="M7.04888 13.74C7.92728 13.74 8.72956 13.6194 9.3181 13.4196C9.61153 13.32 9.86105 13.1976 10.0406 13.0536C10.2186 12.9107 10.3496 12.7277 10.3496 12.5087C10.3496 12.2898 10.2186 12.1067 10.0406 11.9639C9.86105 11.8198 9.61153 11.6975 9.3181 11.5979C8.72956 11.3981 7.92728 11.2775 7.04888 11.2775C6.17049 11.2775 5.3682 11.3981 4.77967 11.5979C4.48624 11.6975 4.23672 11.8198 4.05717 11.9639C3.87918 12.1067 3.74818 12.2898 3.74818 12.5087C3.74818 12.7277 3.87918 12.9107 4.05717 13.0536C4.23672 13.1976 4.48624 13.32 4.77967 13.4196C5.3682 13.6194 6.17049 13.74 7.04888 13.74Z" fill="white" stroke="black" stroke-width="0.335664"/>
</g>
<g id="Group 25">
<path id="Ellipse 11_2" d="M6.95123 12.6765C7.82883 12.6765 8.63013 12.5627 9.21773 12.3743C9.51058 12.2805 9.75975 12.1651 9.93928 12.029C10.1161 11.895 10.2519 11.7193 10.2519 11.5043C10.2519 11.2893 10.1161 11.1137 9.93928 10.9797C9.75975 10.8436 9.51058 10.7282 9.21773 10.6343C8.63013 10.446 7.82883 10.3322 6.95123 10.3322C6.07363 10.3322 5.27232 10.446 4.68472 10.6343C4.39187 10.7282 4.1427 10.8436 3.96318 10.9797C3.78634 11.1137 3.65053 11.2893 3.65053 11.5043C3.65053 11.7193 3.78634 11.895 3.96318 12.029C4.1427 12.1651 4.39187 12.2805 4.68472 12.3743C5.27232 12.5627 6.07363 12.6765 6.95123 12.6765Z" fill="white" stroke="black" stroke-width="0.335664"/>
<path id="Ellipse 12_2" d="M6.95123 11.613C7.82883 11.613 8.63013 11.4992 9.21773 11.3109C9.51058 11.217 9.75975 11.1016 9.93928 10.9656C10.1161 10.8315 10.2519 10.6559 10.2519 10.4409C10.2519 10.2259 10.1161 10.0502 9.93928 9.91618C9.75975 9.78011 9.51058 9.66475 9.21773 9.57087C8.63013 9.38249 7.82883 9.26869 6.95123 9.26869C6.07363 9.26869 5.27232 9.38249 4.68472 9.57087C4.39187 9.66475 4.1427 9.78011 3.96318 9.91618C3.78634 10.0502 3.65053 10.2259 3.65053 10.4409C3.65053 10.6559 3.78634 10.8315 3.96318 10.9656C4.1427 11.1016 4.39187 11.217 4.68472 11.3109C5.27232 11.4992 6.07363 11.613 6.95123 11.613Z" fill="white" stroke="black" stroke-width="0.335664"/>
<path id="Ellipse 13_2" d="M6.95123 10.6677C7.82962 10.6677 8.63191 10.5471 9.22044 10.3473C9.51387 10.2477 9.76339 10.1254 9.94294 9.98129C10.1209 9.83845 10.2519 9.65545 10.2519 9.43647C10.2519 9.21749 10.1209 9.03448 9.94294 8.89164C9.76339 8.74755 9.51387 8.62519 9.22044 8.52559C8.63191 8.32582 7.82962 8.20521 6.95123 8.20521C6.07283 8.20521 5.27055 8.32582 4.68201 8.52559C4.38858 8.62519 4.13906 8.74755 3.95951 8.89164C3.78152 9.03448 3.65053 9.21749 3.65053 9.43647C3.65053 9.65545 3.78152 9.83845 3.95951 9.98129C4.13906 10.1254 4.38858 10.2477 4.68201 10.3473C5.27055 10.5471 6.07283 10.6677 6.95123 10.6677Z" fill="white" stroke="black" stroke-width="0.335664"/>
</g>
<g id="Group 27">
<path id="Ellipse 11_3" d="M6.95123 9.60425C7.82883 9.60425 8.63013 9.49044 9.21773 9.30207C9.51058 9.20819 9.75975 9.09283 9.93928 8.95676C10.1161 8.82273 10.2519 8.64708 10.2519 8.43207C10.2519 8.21707 10.1161 8.04142 9.93928 7.90739C9.75975 7.77132 9.51058 7.65596 9.21773 7.56208C8.63013 7.3737 7.82883 7.2599 6.95123 7.2599C6.07363 7.2599 5.27232 7.3737 4.68472 7.56208C4.39187 7.65596 4.1427 7.77132 3.96318 7.90739C3.78634 8.04142 3.65053 8.21707 3.65053 8.43207C3.65053 8.64708 3.78634 8.82273 3.96318 8.95676C4.1427 9.09283 4.39187 9.20819 4.68472 9.30207C5.27232 9.49044 6.07363 9.60425 6.95123 9.60425Z" fill="white" stroke="black" stroke-width="0.335664"/>
<path id="Ellipse 12_3" d="M6.95123 8.54077C7.82883 8.54077 8.63013 8.42697 9.21773 8.23859C9.51058 8.14471 9.75975 8.02936 9.93928 7.89329C10.1161 7.75926 10.2519 7.5836 10.2519 7.3686C10.2519 7.15359 10.1161 6.97794 9.93928 6.84391C9.75975 6.70784 9.51058 6.59248 9.21773 6.4986C8.63013 6.31023 7.82883 6.19643 6.95123 6.19643C6.07363 6.19643 5.27232 6.31023 4.68472 6.4986C4.39187 6.59248 4.1427 6.70784 3.96318 6.84391C3.78634 6.97794 3.65053 7.15359 3.65053 7.3686C3.65053 7.5836 3.78634 7.75926 3.96318 7.89329C4.1427 8.02936 4.39187 8.14471 4.68472 8.23859C5.27232 8.42697 6.07363 8.54077 6.95123 8.54077Z" fill="white" stroke="black" stroke-width="0.335664"/>
<path id="Ellipse 13_3" d="M6.95123 7.59545C7.82962 7.59545 8.63191 7.47485 9.22044 7.27508C9.51387 7.17548 9.76339 7.05312 9.94294 6.90902C10.1209 6.76619 10.2519 6.58318 10.2519 6.3642C10.2519 6.14522 10.1209 5.96221 9.94294 5.81938C9.76339 5.67528 9.51387 5.55293 9.22044 5.45332C8.63191 5.25355 7.82962 5.13295 6.95123 5.13295C6.07283 5.13295 5.27055 5.25355 4.68201 5.45332C4.38858 5.55293 4.13906 5.67528 3.95951 5.81938C3.78152 5.96221 3.65053 6.14522 3.65053 6.3642C3.65053 6.58318 3.78152 6.76619 3.95951 6.90902C4.13906 7.05312 4.38858 7.17548 4.68201 7.27508C5.27055 7.47485 6.07283 7.59545 6.95123 7.59545Z" fill="white" stroke="black" stroke-width="0.335664"/>
</g>
<path id="Vector_2" d="M9.02038 4.5779V4.62902L9.05362 4.66786L9.59212 5.29701L9.59228 5.2972C9.60993 5.31775 9.62486 5.34329 9.63533 5.3728C9.6458 5.40232 9.65135 5.43454 9.65131 5.46746V5.46763V6.20478C9.65131 6.27219 9.6282 6.33333 9.59215 6.37544C9.55667 6.41689 9.5136 6.43501 9.47419 6.43501H9.33099L9.33573 6.57243C9.33558 6.57342 9.33534 6.57484 9.33497 6.57664C9.33332 6.58454 9.32886 6.60075 9.317 6.62301C9.29374 6.66666 9.23793 6.74106 9.10321 6.82183C8.82922 6.98611 8.24084 7.16927 6.99951 7.16927C5.75941 7.16927 5.14364 6.98654 4.8428 6.81953C4.69397 6.73691 4.62433 6.65936 4.59233 6.61136C4.57617 6.58711 4.5688 6.5692 4.56569 6.56011C4.56482 6.55758 4.56427 6.55567 4.56394 6.55445L4.55211 6.43501H4.42679C4.38738 6.43501 4.3443 6.41689 4.30883 6.37544C4.27278 6.33333 4.24967 6.27219 4.24967 6.20478L4.24967 5.46763L4.24967 5.46746C4.24963 5.43454 4.25518 5.40232 4.26565 5.37281C4.27612 5.34329 4.29105 5.31775 4.3087 5.2972L4.30886 5.29701L4.84735 4.66786L4.8806 4.62902V4.5779V3.2562C4.8806 2.12033 5.5403 1.18235 6.40772 0.902962L6.47392 0.881641L6.49629 0.815792C6.57406 0.586933 6.75547 0.44596 6.95049 0.44596C7.1455 0.44596 7.32692 0.586933 7.40468 0.815792L7.42707 0.88167L7.49331 0.902977C8.36065 1.182 9.02038 2.12029 9.02038 3.2562V4.5779Z" fill="white" stroke="black" stroke-width="0.276685"/>
<path id="Vector 4" d="M6.95671 13.1328H8.49243L7.29457 15.0435H8.61529L5.48242 18.7132L6.64957 16.014H5.48242L6.95671 13.1328Z" fill="#FF7A00" stroke="#FF7A00" stroke-width="0.138342"/>
</g>
</svg>
