<svg width="18" height="14" viewBox="0 0 18 14" fill="none" xmlns="http://www.w3.org/2000/svg">
<g id="Group 24">
<path id="Rectangle 31" d="M0 10.3135H18V13.1077H0V10.3135Z" fill="black"/>
<g id="Vector">
<path d="M0.845703 3.55619C0.845703 3.01786 1.2821 2.58146 1.82043 2.58146H5.26448C5.8028 2.58146 6.23921 3.01786 6.23921 3.55619V10.5093C6.23921 11.0476 5.8028 11.484 5.26448 11.484H1.82043C1.2821 11.484 0.845703 11.0476 0.845703 10.5093V3.55619Z" fill="white"/>
<path d="M1.82043 1.93164H5.39444V2.58146H1.82043V1.93164Z" fill="black"/>
<path d="M6.23921 3.55619C6.23921 3.01786 6.67561 2.58146 7.21393 2.58146H10.658C11.1963 2.58146 11.6327 3.01786 11.6327 3.55619V10.5093C11.6327 11.0476 11.1963 11.484 10.658 11.484H7.21393C6.67561 11.484 6.23921 11.0476 6.23921 10.5093V3.55619Z" fill="white"/>
<path d="M7.21393 1.93164H10.7879V2.58146H7.21393V1.93164Z" fill="black"/>
<path d="M11.6327 3.55619C11.6327 3.01786 12.0691 2.58146 12.6074 2.58146H16.0515C16.5898 2.58146 17.0262 3.01786 17.0262 3.55619V10.5093C17.0262 11.0476 16.5898 11.484 16.0515 11.484H12.6074C12.0691 11.484 11.6327 11.0476 11.6327 10.5093V3.55619Z" fill="white"/>
<path d="M12.6074 1.93164H16.1814V2.58146H12.6074V1.93164Z" fill="black"/>
<path d="M10.4854 2.27893H7.51646V2.23417H10.4854V2.27893ZM7.21393 2.88399H10.658C11.0292 2.88399 11.3302 3.18494 11.3302 3.55619V10.5093C11.3302 10.8805 11.0292 11.1815 10.658 11.1815H7.21393C6.84269 11.1815 6.54173 10.8805 6.54173 10.5093V3.55619C6.54173 3.18494 6.84269 2.88399 7.21393 2.88399ZM15.8789 2.27893H12.91V2.23417H15.8789V2.27893ZM12.6074 2.88399H16.0515C16.4227 2.88399 16.7237 3.18494 16.7237 3.55619V10.5093C16.7237 10.8805 16.4227 11.1815 16.0515 11.1815H12.6074C12.2362 11.1815 11.9352 10.8805 11.9352 10.5093V3.55619C11.9352 3.18494 12.2362 2.88399 12.6074 2.88399ZM5.93668 3.55619V10.5093C5.93668 10.8805 5.63572 11.1815 5.26448 11.1815H1.82043C1.44919 11.1815 1.14823 10.8805 1.14823 10.5093V3.55619C1.14823 3.18494 1.44919 2.88399 1.82043 2.88399H5.26448C5.63572 2.88399 5.93668 3.18494 5.93668 3.55619ZM2.12296 2.27893V2.23417H5.09191V2.27893H2.12296Z" stroke="black" stroke-width="0.605053"/>
</g>
<g id="Vector_2">
<path d="M1.88477 7.4545H4.93892V9.79385H1.88477V7.4545Z" fill="#D9D9D9"/>
<path d="M1.88477 3.68555H4.93892V7.4545H1.88477V3.68555Z" fill="#5F5F5F"/>
<path d="M7.34325 7.4545H10.3974V9.79385H7.34325V7.4545Z" fill="#D9D9D9"/>
<path d="M7.34325 3.68555H10.3974V7.4545H7.34325V3.68555Z" fill="#5F5F5F"/>
<path d="M12.9317 7.4545H15.9858V9.79385H12.9317V7.4545Z" fill="#D9D9D9"/>
<path d="M12.9317 3.68555H15.9858V7.4545H12.9317V3.68555Z" fill="#5F5F5F"/>
</g>
<g id="Vector_3">
<path d="M2.4043 0.891602H4.28877V1.93131H2.4043V0.891602Z" fill="#6B6B6B"/>
<path d="M7.92776 0.891602H9.81224V1.93131H7.92776V0.891602Z" fill="#6B6B6B"/>
<path d="M13.4512 0.891602H15.3357V1.93131H13.4512V0.891602Z" fill="#6B6B6B"/>
<path d="M3.63895 1.44395C3.63895 1.60545 3.50803 1.73637 3.34654 1.73637C3.18504 1.73637 3.05412 1.60545 3.05412 1.44395C3.05412 1.28245 3.18504 1.15153 3.34654 1.15153C3.50803 1.15153 3.63895 1.28245 3.63895 1.44395Z" fill="#D9D9D9"/>
<path d="M9.16242 1.44395C9.16242 1.60545 9.0315 1.73637 8.87 1.73637C8.7085 1.73637 8.57758 1.60545 8.57758 1.44395C8.57758 1.28245 8.7085 1.15153 8.87 1.15153C9.0315 1.15153 9.16242 1.28245 9.16242 1.44395Z" fill="#D9D9D9"/>
<path d="M14.6859 1.44395C14.6859 1.60545 14.555 1.73637 14.3935 1.73637C14.232 1.73637 14.101 1.60545 14.101 1.44395C14.101 1.28245 14.232 1.15153 14.3935 1.15153C14.555 1.15153 14.6859 1.28245 14.6859 1.44395Z" fill="#D9D9D9"/>
</g>
<path id="Vector 4" d="M8.8526 5.57031H9.67969L9.03456 6.61568H9.74586L8.05859 8.62346L8.68718 7.14666H8.05859L8.8526 5.57031Z" fill="#FF7A00" stroke="#FF7A00" stroke-width="0.106873"/>
</g>
</svg>
