<svg width="13" height="18" viewBox="0 0 13 18" fill="none" xmlns="http://www.w3.org/2000/svg">
<g id="Group 31">
<g id="Vector">
<path d="M0 0.134766H12.1317V17.8657H0V0.134766Z" fill="#D9D9D9"/>
<path d="M0 0.134766H12.1317V4.05973H0V0.134766Z" fill="#5F5F5F"/>
<path d="M0 13.9408H12.1317V17.8657H0V13.9408Z" fill="#5F5F5F"/>
<path d="M0 4.05973H12.1317V7.98469H0V4.05973Z" fill="white"/>
<path d="M0 10.0158H12.1317V13.9408H0V10.0158Z" fill="white"/>
</g>
<g id="Vector_2">
<path d="M0.191406 8.41016H11.9663V9.72763H0.191406V8.41016Z" fill="black"/>
<path d="M0.7678 9.72763H2.66166V12.2253H0.7678V9.72763Z" fill="black"/>
<path d="M9.46859 9.72763H11.3625V12.2253H9.46859V9.72763Z" fill="black"/>
</g>
<g id="Vector_3">
<path d="M0 11.5391H3.56815V14.174H0V11.5391Z" fill="black"/>
<path d="M1.66624 12.871C1.66624 12.9616 1.65525 13.0441 1.63328 13.1186C1.61183 13.1926 1.57806 13.2564 1.53196 13.31C1.48585 13.3636 1.42662 13.4049 1.35425 13.4338C1.28187 13.4622 1.1953 13.4765 1.09451 13.4765C0.995876 13.4765 0.910371 13.4622 0.838 13.4338C0.766166 13.4049 0.706929 13.3639 0.66029 13.3108C0.613651 13.2572 0.579074 13.1931 0.556558 13.1186C0.534043 13.0441 0.522785 12.961 0.522785 12.8693C0.522785 12.7471 0.542888 12.641 0.583094 12.5509C0.623836 12.4603 0.686558 12.3904 0.771258 12.341C0.855959 12.2912 0.964247 12.2663 1.09612 12.2663C1.23014 12.2663 1.33897 12.2912 1.4226 12.341C1.50676 12.3909 1.56841 12.4611 1.60754 12.5517C1.64668 12.6423 1.66624 12.7487 1.66624 12.871ZM0.857299 12.871C0.857299 12.9417 0.865341 13.0026 0.881423 13.0535C0.897505 13.1044 0.922969 13.1436 0.957814 13.1709C0.99266 13.1982 1.03823 13.2119 1.09451 13.2119C1.15295 13.2119 1.19932 13.1982 1.23363 13.1709C1.26847 13.1436 1.2934 13.1044 1.30841 13.0535C1.32396 13.0026 1.33173 12.9417 1.33173 12.871C1.33173 12.7648 1.31404 12.6809 1.27866 12.6193C1.24328 12.5576 1.18243 12.5268 1.09612 12.5268C1.03876 12.5268 0.992392 12.5407 0.95701 12.5686C0.922165 12.5965 0.896701 12.6362 0.880619 12.6876C0.865072 12.7391 0.857299 12.8002 0.857299 12.871Z" fill="white"/>
<path d="M2.99787 13.4604H2.58133L2.15193 12.6321H2.1447C2.14738 12.6573 2.14979 12.6876 2.15193 12.723C2.15408 12.7584 2.15595 12.7946 2.15756 12.8316C2.15917 12.868 2.15997 12.901 2.15997 12.9305V13.4604H1.87853V12.2847H2.29346L2.72125 13.1017H2.72607C2.72447 13.076 2.72286 13.0463 2.72125 13.0125C2.71964 12.9782 2.71803 12.9436 2.71643 12.9087C2.71535 12.8739 2.71482 12.8431 2.71482 12.8163V12.2847H2.99787V13.4604Z" fill="white"/>
<path d="M8.56356 11.5391H12.1317V14.174H8.56356V11.5391Z" fill="black"/>
<path d="M10.0377 12.871C10.0377 12.9616 10.0267 13.0441 10.0047 13.1186C9.98326 13.1926 9.94949 13.2564 9.90338 13.31C9.85728 13.3636 9.79804 13.4049 9.72567 13.4338C9.6533 13.4622 9.56672 13.4765 9.46594 13.4765C9.3673 13.4765 9.2818 13.4622 9.20943 13.4338C9.13759 13.4049 9.07836 13.3639 9.03172 13.3108C8.98508 13.2572 8.9505 13.1931 8.92799 13.1186C8.90547 13.0441 8.89421 12.961 8.89421 12.8693C8.89421 12.7471 8.91432 12.641 8.95452 12.5509C8.99526 12.4603 9.05799 12.3904 9.14269 12.341C9.22739 12.2912 9.33567 12.2663 9.46755 12.2663C9.60157 12.2663 9.71039 12.2912 9.79402 12.341C9.87819 12.3909 9.93984 12.4611 9.97897 12.5517C10.0181 12.6423 10.0377 12.7487 10.0377 12.871ZM9.22873 12.871C9.22873 12.9417 9.23677 13.0026 9.25285 13.0535C9.26893 13.1044 9.2944 13.1436 9.32924 13.1709C9.36409 13.1982 9.40965 13.2119 9.46594 13.2119C9.52437 13.2119 9.57075 13.1982 9.60505 13.1709C9.6399 13.1436 9.66483 13.1044 9.67984 13.0535C9.69538 13.0026 9.70316 12.9417 9.70316 12.871C9.70316 12.7648 9.68547 12.6809 9.65009 12.6193C9.6147 12.5576 9.55386 12.5268 9.46755 12.5268C9.41019 12.5268 9.36382 12.5407 9.32844 12.5686C9.29359 12.5965 9.26813 12.6362 9.25205 12.6876C9.2365 12.7391 9.22873 12.8002 9.22873 12.871Z" fill="white"/>
<path d="M10.5628 13.4604H10.25V12.2847H10.9447V12.5397H10.5628V12.764H10.915V13.0189H10.5628V13.4604Z" fill="white"/>
<path d="M11.4505 13.4604H11.1377V12.2847H11.8325V12.5397H11.4505V12.764H11.8027V13.0189H11.4505V13.4604Z" fill="white"/>
</g>
<rect id="Rectangle 32" y="4.81445" width="12.1317" height="1.01555" fill="#FF4646"/>
<g id="Vector_4">
<path d="M2.58022 16.4521C2.58022 16.8917 2.22386 17.2481 1.78425 17.2481C1.34465 17.2481 0.988281 16.8917 0.988281 16.4521C0.988281 16.0125 1.34465 15.6561 1.78425 15.6561C2.22386 15.6561 2.58022 16.0125 2.58022 16.4521Z" fill="black"/>
<path d="M11.1712 16.4521C11.1712 16.8917 10.8149 17.2481 10.3753 17.2481C9.93566 17.2481 9.57929 16.8917 9.57929 16.4521C9.57929 16.0125 9.93566 15.6561 10.3753 15.6561C10.8149 15.6561 11.1712 16.0125 11.1712 16.4521Z" fill="black"/>
<path d="M2.58022 2.50886C2.58022 2.94847 2.22386 3.30483 1.78425 3.30483C1.34465 3.30483 0.988281 2.94847 0.988281 2.50886C0.988281 2.06926 1.34465 1.71289 1.78425 1.71289C2.22386 1.71289 2.58022 2.06926 2.58022 2.50886Z" fill="black"/>
<path d="M11.1712 2.50886C11.1712 2.94847 10.8149 3.30483 10.3753 3.30483C9.93566 3.30483 9.57929 2.94847 9.57929 2.50886C9.57929 2.06926 9.93566 1.71289 10.3753 1.71289C10.8149 1.71289 11.1712 2.06926 11.1712 2.50886Z" fill="black"/>
</g>
<path id="Vector 4" d="M5.98221 8.79395H7.86797L6.39708 11.1401H8.01883L4.17188 15.6463L5.60505 12.3319H4.17188L5.98221 8.79395Z" fill="#FF7A00" stroke="#FF7A00" stroke-width="0.171532"/>
</g>
</svg>
