<svg width="573" height="120" viewBox="0 0 573 120" fill="none" xmlns="http://www.w3.org/2000/svg">
<path d="M274.646 73.0284V84.3148H233.126V28.4163H273.467V39.5796H245.354V50.7839H271.815V61.3316H245.354V73.0284H274.646Z" fill="#8C8C8C"/>
<path d="M322.544 52.7129V28.4163H335.323V84.3148H324.825L297.774 50.1683L298.01 63.4657V84.3148H285.192V28.3752H295.69L322.977 65.1074L322.544 52.7129Z" fill="#8C8C8C"/>
<path d="M390.297 73.0284V84.3148H348.777V28.4163H389.117V39.5796H361.005V50.7839H387.466V61.3316H361.005V73.0284H390.297Z" fill="#8C8C8C"/>
<path d="M413.543 84.3148H400.843V28.4163H427.343C430.594 28.4163 433.595 28.9498 436.347 30.0169C439.099 31.0566 441.328 32.4931 443.031 34.3262C446.518 38.0473 448.261 42.2473 448.261 46.926C448.261 51.4406 447.238 55.2164 445.194 58.2535C443.175 61.2632 439.663 63.5478 434.657 65.1074L451.327 84.3148H436.583L422.075 66.4207H413.543V84.3148ZM413.543 39.0871V56.4476H427.304C430.056 56.4476 432.153 55.6268 433.595 53.9851C435.037 52.3161 435.757 50.0452 435.757 47.1722C435.757 45.1475 434.997 43.3007 433.477 41.6316C431.983 39.9353 429.938 39.0871 427.343 39.0871H413.543Z" fill="#8C8C8C"/>
<path d="M484.89 85.7102C476.685 85.7102 470.106 83.836 465.152 80.0875C461.771 77.4882 459.254 74.2323 457.603 70.3197C455.978 66.3797 455.165 62.0293 455.165 57.2685C455.165 48.1299 457.813 40.7971 463.108 35.2702C468.429 29.7159 475.532 26.9388 484.418 26.9388C491.705 26.9388 498.664 28.6215 505.296 31.9869L500.185 42.1241C494.601 39.4428 489.582 38.1021 485.126 38.1021C482.295 38.1021 479.739 38.6082 477.459 39.6206C475.178 40.6056 473.33 41.9873 471.915 43.7658C469.136 47.3501 467.747 51.6868 467.747 56.776C467.747 59.2385 468.101 61.5231 468.809 63.6299C469.543 65.7093 470.604 67.5699 471.993 69.2115C473.409 70.8258 475.231 72.0981 477.459 73.0284C479.713 73.9313 482.269 74.3828 485.126 74.3828C488.088 74.3828 491.037 73.9997 493.972 73.2336V54.9701H505.925V80.539C503.592 82.0165 500.407 83.2477 496.371 84.2327C492.308 85.2177 488.481 85.7102 484.89 85.7102Z" fill="#8C8C8C"/>
<path d="M543.629 26.9388C552.515 26.9388 559.619 29.6202 564.94 34.9829C570.313 40.3183 573 47.4595 573 56.4066C573 65.3536 570.313 72.4675 564.94 77.7482C559.566 83.0562 552.476 85.7102 543.669 85.7102C537.902 85.7923 532.764 84.6295 528.256 82.2217C523.774 79.7866 520.3 76.3254 517.837 71.8382C515.373 67.351 514.167 62.2071 514.219 56.4066C514.219 47.5963 516.893 40.4825 522.24 35.065C527.587 29.6475 534.717 26.9388 543.629 26.9388ZM560.3 56.4066C560.3 50.9891 558.806 46.625 555.818 43.3143C552.83 39.9763 548.767 38.3073 543.629 38.3073C538.597 38.3073 534.56 40.0173 531.519 43.4375C528.479 46.8576 526.958 51.1806 526.958 56.4066C526.958 61.5505 528.492 65.8325 531.559 69.2526C534.625 72.6453 538.662 74.3417 543.669 74.3417C548.701 74.3417 552.725 72.6453 555.739 69.2526C558.78 65.8325 560.3 61.5505 560.3 56.4066Z" fill="#8C8C8C"/>
<path d="M40.2202 73.0316V84.3188H0V28.4164H39.0776V39.5804H11.8452V50.7855H37.4779V61.3339H11.8452V73.0316H40.2202Z" fill="#FF9800"/>
<path d="M62.7381 28.4164V73.0316H87.3044V84.3188H50.4359V28.4164H62.7381Z" fill="#FF9800"/>
<path d="M133.833 31.5768L129.796 41.6327C123.651 39.0058 118.218 37.6924 113.495 37.6924C110.93 37.6924 108.861 38.0208 107.287 38.6775C105.382 39.4163 104.43 40.9212 104.43 43.1923C104.43 44.8068 105.636 46.1475 108.048 47.2147C109.318 47.7619 111.641 48.5144 115.018 49.4721C117.126 50.0741 118.662 50.5393 119.627 50.8676C120.947 51.3054 122.382 51.839 123.931 52.4684C125.48 53.0703 126.813 53.7134 127.93 54.3974C130.698 56.0119 132.691 57.8041 133.91 59.7743C135.433 62.1548 136.195 64.9595 136.195 68.1883C136.195 70.5416 135.776 72.7032 134.938 74.6734C134.1 76.6161 132.97 78.2716 131.548 79.6397C130.126 80.9805 128.45 82.1161 126.521 83.0464C124.616 83.9767 122.598 84.6471 120.465 85.0576C118.332 85.4954 116.11 85.7143 113.8 85.7143C109.864 85.7143 106.157 85.2218 102.678 84.2367C99.1994 83.2516 95.4414 81.6783 91.4042 79.5166L94.6797 69.707C101.84 73.2094 108.201 74.9607 113.761 74.9607C120.592 74.9607 124.007 72.9221 124.007 68.8451C123.931 67.6958 123.715 66.7655 123.359 66.054C123.029 65.3152 122.458 64.6722 121.645 64.125C121.112 63.7145 120.579 63.3725 120.046 63.0989C119.741 62.9073 119.043 62.5926 117.951 62.1548C117.062 61.7991 116.313 61.5392 115.704 61.375L113.114 60.5541C107.502 58.8576 103.668 57.5579 101.612 56.6549C97.3458 54.7395 94.5527 52.2631 93.2324 49.2259C92.5214 47.6115 92.1659 45.7508 92.1659 43.6438C92.1659 41.2359 92.5722 39.0742 93.3847 37.1588C94.2226 35.2161 95.3145 33.629 96.6602 32.3977C98.0314 31.139 99.6564 30.0992 101.535 29.2783C103.414 28.4301 105.357 27.8281 107.363 27.4724C109.394 27.1166 111.514 26.9388 113.723 26.9388C119.741 26.9388 126.445 28.4848 133.833 31.5768Z" fill="#FF9800"/>
<path d="M191.409 0H222.084L198.157 38.5714H224.537L161.961 112.653L185.274 58.1633H161.961L191.409 0Z" fill="#FF9800"/>
<path d="M174.231 7.34694H204.906L180.98 45.9184H207.36L144.784 120L168.096 65.5102H144.784L174.231 7.34694Z" fill="#8C8C8C"/>
</svg>
